<?xml version="1.0" standalone="no"?>
<!DOCTYPE svg PUBLIC "-//W3C//DTD SVG 20010904//EN"
 "http://www.w3.org/TR/2001/REC-SVG-20010904/DTD/svg10.dtd">
<svg version="1.0" xmlns="http://www.w3.org/2000/svg"
 width="700.000000pt" height="700.000000pt" viewBox="0 0 700.000000 700.000000"
 preserveAspectRatio="xMidYMid meet">
<metadata>
Created by potrace 1.14, written by Peter Selinger 2001-2017
</metadata>
<g transform="translate(0.000000,700.000000) scale(0.100000,-0.100000)"
fill="#000000" stroke="none">
<path d="M3255 6426 c-65 -116 -142 -251 -171 -301 -28 -49 -62 -110 -76 -135
-14 -25 -166 -292 -338 -595 -172 -302 -325 -572 -340 -600 -16 -27 -78 -138
-139 -245 -61 -107 -119 -220 -128 -250 -15 -50 -16 -199 -17 -1580 -1 -839 2
-1542 5 -1564 4 -24 19 -50 38 -70 l31 -31 908 -1 c499 -1 945 2 992 7 194 20
202 21 308 49 82 23 208 83 297 143 135 92 253 246 306 400 36 104 46 171 43
277 -7 208 -89 387 -247 537 -167 158 -348 245 -602 288 -91 15 -141 22 -182
24 -45 2 -21 19 70 50 378 130 590 328 634 594 7 43 10 1727 2 1727 -5 0 -229
-77 -719 -247 -135 -46 -308 -106 -385 -133 -77 -26 -198 -69 -270 -93 -71
-25 -236 -82 -365 -127 -229 -79 -404 -139 -563 -195 -43 -15 -80 -26 -82 -23
-2 2 65 35 148 73 130 59 550 251 712 325 28 12 88 40 133 61 46 22 85 39 87
39 2 0 56 25 121 56 66 31 128 60 139 64 22 9 466 211 590 269 44 21 108 50
143 66 l62 28 0 76 c2 323 1 484 -3 487 -4 4 -1755 -1241 -1982 -1409 -92 -67
-171 -122 -160 -110 8 9 142 119 225 186 130 104 276 222 280 227 3 3 73 59
155 125 141 113 506 407 550 443 11 10 40 33 65 52 25 19 47 37 50 40 3 4 30
26 61 51 30 24 85 68 122 97 l66 53 0 316 0 315 -28 -28 c-15 -16 -61 -69
-101 -119 -41 -49 -77 -92 -80 -95 -3 -3 -27 -32 -55 -65 -27 -33 -52 -62 -55
-65 -3 -3 -72 -86 -155 -185 -82 -99 -177 -212 -210 -251 -33 -39 -69 -82 -80
-95 -63 -76 -232 -277 -246 -294 -20 -22 -173 -205 -234 -279 -22 -27 -45 -54
-50 -60 -71 -74 -314 -380 -309 -388 4 -7 2 -8 -5 -4 -14 9 -11 14 86 151 35
50 70 99 78 110 7 11 56 80 107 152 51 73 143 203 203 290 61 86 137 195 171
242 33 48 163 232 288 410 l229 323 1 300 c0 164 -1 305 -4 312 -3 8 -59 -81
-125 -198z m295 -2300 c41 -3 86 -8 100 -10 238 -49 364 -146 428 -333 30 -86
37 -146 35 -303 -1 -116 -4 -146 -27 -215 -43 -134 -113 -217 -252 -299 -114
-66 -191 -78 -546 -81 l-248 -2 0 601 c0 658 -1 641 58 648 41 5 366 0 452 -6z
m130 -1471 c19 -3 64 -10 98 -16 149 -24 318 -107 417 -206 138 -136 196 -284
201 -514 10 -450 -230 -674 -733 -683 -310 -6 -491 62 -567 213 -51 101 -55
144 -56 704 l-1 520 303 -6 c167 -3 319 -9 338 -12z"/>
</g>
</svg>
