<svg width="385" height="106" viewBox="0 0 385 106" fill="none" xmlns="http://www.w3.org/2000/svg">
<path d="M70.7748 51.82C73.3208 51.82 75.7328 52.289 78.0108 53.227C80.2888 54.1203 82.2765 55.371 83.9738 56.979C85.7158 58.587 87.0782 60.5077 88.0608 62.741C89.0882 64.9297 89.6018 67.3417 89.6018 69.977C89.6018 72.7017 89.0882 75.203 88.0608 77.481C87.0782 79.759 85.7158 81.7243 83.9738 83.377C82.2765 85.0297 80.2888 86.325 78.0108 87.263C75.7328 88.201 73.3208 88.67 70.7748 88.67C68.2735 88.67 65.8838 88.2234 63.6058 87.33C61.3725 86.392 59.4072 85.0967 57.7098 83.444C56.0125 81.7913 54.6725 79.826 53.6898 77.548C52.7072 75.2254 52.2158 72.7017 52.2158 69.977C52.2158 67.3417 52.7072 64.9074 53.6898 62.674C54.6725 60.4407 56.0125 58.52 57.7098 56.912C59.4072 55.304 61.3725 54.0534 63.6058 53.16C65.8838 52.2667 68.2735 51.82 70.7748 51.82ZM70.7748 55.036C69.1222 55.036 67.6035 55.3933 66.2188 56.108C64.8788 56.8227 63.7175 57.85 62.7348 59.19C61.7968 60.4853 61.0598 62.071 60.5238 63.947C60.0325 65.7783 59.7868 67.8107 59.7868 70.044C59.7868 72.3667 60.0325 74.466 60.5238 76.342C61.0598 78.218 61.7968 79.826 62.7348 81.166C63.7175 82.4613 64.8788 83.4663 66.2188 84.181C67.5588 84.8957 69.0775 85.253 70.7748 85.253C72.4722 85.253 74.0132 84.8957 75.3978 84.181C76.7825 83.4663 77.9662 82.439 78.9488 81.099C79.9315 79.759 80.6908 78.151 81.2268 76.275C81.7628 74.399 82.0308 72.322 82.0308 70.044C82.0308 67.8107 81.7628 65.7783 81.2268 63.947C80.6908 62.1157 79.9315 60.5524 78.9488 59.257C77.9662 57.917 76.7825 56.8897 75.3978 56.175C74.0132 55.4157 72.4722 55.036 70.7748 55.036Z" fill="white"/>
<path d="M111.196 73.595C113.072 73.595 114.523 72.7464 115.551 71.049C116.623 69.3517 117.159 66.962 117.159 63.88C117.159 60.8427 116.623 58.4977 115.551 56.845C114.523 55.1477 113.049 54.299 111.129 54.299C109.208 54.299 107.667 55.1477 106.506 56.845C105.389 58.5423 104.831 60.865 104.831 63.813C104.831 66.761 105.411 69.1283 106.573 70.915C107.734 72.7017 109.275 73.595 111.196 73.595ZM107.511 81.434C108.583 81.5233 109.565 81.6127 110.459 81.702C111.352 81.7914 112.223 81.8807 113.072 81.97C113.965 82.0593 114.836 82.171 115.685 82.305C116.578 82.439 117.538 82.573 118.566 82.707C121.782 83.1983 124.35 84.449 126.271 86.459C128.236 88.4243 129.219 90.9034 129.219 93.896C129.219 97.648 127.722 100.507 124.73 102.472C121.782 104.437 117.494 105.42 111.866 105.42C109.364 105.42 107.064 105.197 104.965 104.75C102.91 104.303 101.146 103.656 99.6717 102.807C98.1977 102.003 97.0364 101.02 96.1877 99.859C95.3837 98.6977 94.9817 97.4247 94.9817 96.04C94.9817 95.102 95.138 94.231 95.4507 93.427C95.7634 92.623 96.1877 91.9083 96.7237 91.283C97.2597 90.7023 97.885 90.2333 98.5997 89.876C99.359 89.5187 100.141 89.34 100.945 89.34C102.463 89.34 103.826 89.809 105.032 90.747C103.826 91.015 102.843 91.6627 102.084 92.69C101.324 93.762 100.945 94.968 100.945 96.308C100.945 98.2733 101.905 99.792 103.826 100.864C105.791 101.936 108.56 102.472 112.134 102.472C119.772 102.472 123.591 100.127 123.591 95.437C123.591 93.6504 122.988 92.154 121.782 90.948C120.576 89.7867 119.146 89.0944 117.494 88.871C116.422 88.737 115.305 88.5807 114.144 88.402C113.027 88.268 111.91 88.134 110.794 88C109.722 87.866 108.717 87.7543 107.779 87.665C106.841 87.5757 106.081 87.4864 105.501 87.397C102.999 87.129 101.101 86.459 99.8057 85.387C98.5104 84.315 97.8627 82.841 97.8627 80.965C97.8627 79.4017 98.5104 78.017 99.8057 76.811C101.101 75.605 102.731 74.8457 104.697 74.533V74.265C103.714 73.863 102.798 73.3047 101.95 72.59C101.101 71.8307 100.364 70.982 99.7387 70.044C99.158 69.106 98.689 68.101 98.3317 67.029C97.9744 65.9123 97.7957 64.7733 97.7957 63.612C97.7957 61.9147 98.1084 60.3513 98.7337 58.922C99.4037 57.4927 100.319 56.2644 101.481 55.237C102.687 54.165 104.094 53.3387 105.702 52.758C107.31 52.1327 109.074 51.82 110.995 51.82C112.96 51.82 114.814 52.1327 116.556 52.758C118.298 53.3387 119.794 54.2097 121.045 55.371C122.563 54.1203 123.903 53.227 125.065 52.691C126.226 52.1103 127.32 51.82 128.348 51.82C129.956 51.82 131.229 52.1997 132.167 52.959C133.149 53.6737 133.641 54.6563 133.641 55.907C133.641 56.6663 133.373 57.2694 132.837 57.716C132.345 58.1627 131.72 58.386 130.961 58.386C130.335 58.386 129.822 58.2743 129.42 58.051C129.018 57.8277 128.638 57.6044 128.281 57.381C127.968 57.113 127.633 56.8673 127.276 56.644C126.918 56.4207 126.472 56.309 125.936 56.309C124.864 56.309 123.769 56.6887 122.653 57.448C123.725 59.1007 124.261 61.1777 124.261 63.679C124.261 67.4757 123.077 70.4683 120.71 72.657C118.342 74.801 114.791 76.0517 110.057 76.409C107.332 76.6324 105.434 76.9227 104.362 77.28C103.29 77.6373 102.754 78.285 102.754 79.223C102.754 79.9377 103.156 80.4737 103.96 80.831C104.764 81.1437 105.947 81.3447 107.511 81.434Z" fill="white"/>
<path d="M146.882 77.347C146.882 79.1783 146.927 80.63 147.016 81.702C147.105 82.774 147.329 83.6003 147.686 84.181C148.088 84.717 148.646 85.0743 149.361 85.253C150.076 85.4317 151.081 85.5657 152.376 85.655V88H134.554V85.655C135.849 85.5657 136.877 85.4317 137.636 85.253C138.395 85.0743 138.976 84.717 139.378 84.181C139.78 83.645 140.026 82.8857 140.115 81.903C140.249 80.8757 140.316 79.5134 140.316 77.816V49.743C140.316 47.1077 140.271 45.0083 140.182 43.445C140.137 41.8817 140.026 40.698 139.847 39.894C139.758 39.358 139.601 38.9337 139.378 38.621C139.199 38.2637 138.909 37.9957 138.507 37.817C138.105 37.5937 137.569 37.4373 136.899 37.348C136.229 37.2587 135.403 37.214 134.42 37.214V34.936L146.748 32.39V57.917H147.016C147.686 57.0237 148.512 56.2197 149.495 55.505C150.522 54.7457 151.617 54.098 152.778 53.562C153.939 53.026 155.145 52.6017 156.396 52.289C157.691 51.9763 158.942 51.82 160.148 51.82C162.203 51.82 164.079 52.1773 165.776 52.892C167.518 53.6067 168.858 54.567 169.796 55.773C170.555 56.8003 171.114 58.1627 171.471 59.86C171.828 61.5127 172.007 63.7683 172.007 66.627V77.347C172.007 79.1783 172.052 80.63 172.141 81.702C172.23 82.7294 172.454 83.5333 172.811 84.114C173.213 84.6947 173.771 85.0743 174.486 85.253C175.201 85.4317 176.206 85.5657 177.501 85.655V88H159.746V85.655C160.997 85.6103 162.002 85.4987 162.761 85.32C163.52 85.0967 164.079 84.717 164.436 84.181C164.838 83.645 165.084 82.8857 165.173 81.903C165.307 80.8757 165.374 79.5134 165.374 77.816V69.374C165.374 64.3713 164.793 60.8204 163.632 58.721C162.471 56.577 160.528 55.505 157.803 55.505C155.704 55.505 153.783 56.041 152.041 57.113C150.344 58.185 149.004 59.659 148.021 61.535C147.798 62.0264 147.597 62.4953 147.418 62.942C147.284 63.344 147.172 63.813 147.083 64.349C146.994 64.885 146.927 65.5103 146.882 66.225C146.882 66.895 146.882 67.7437 146.882 68.771V77.347Z" fill="white"/>
<path d="M193.345 88.134C193.345 93.7174 192.161 97.983 189.794 100.931C187.471 103.924 184.077 105.42 179.61 105.42C176.751 105.42 174.429 104.839 172.642 103.678C170.811 102.561 169.895 101.065 169.895 99.189C169.895 98.1617 170.208 97.38 170.833 96.844C171.414 96.308 172.24 96.04 173.312 96.04C174.116 96.04 174.741 96.2187 175.188 96.576C175.59 96.978 176.126 97.849 176.796 99.189C177.421 100.529 178.002 101.422 178.538 101.869C179.074 102.316 179.9 102.539 181.017 102.539C183.161 102.539 184.657 101.802 185.506 100.328C186.355 98.854 186.779 96.2633 186.779 92.556V69.24C186.779 66.6494 186.734 64.5277 186.645 62.875C186.6 61.1777 186.489 60.0163 186.31 59.391C186.087 58.3637 185.573 57.6714 184.769 57.314C183.965 56.912 182.446 56.711 180.213 56.711V54.366L193.345 51.82V88.134ZM185.774 38.219C185.774 37.0577 186.176 36.075 186.98 35.271C187.784 34.467 188.767 34.065 189.928 34.065C191.089 34.065 192.072 34.467 192.876 35.271C193.68 36.075 194.082 37.0577 194.082 38.219C194.082 39.3803 193.68 40.363 192.876 41.167C192.072 41.971 191.089 42.373 189.928 42.373C188.767 42.373 187.784 41.971 186.98 41.167C186.176 40.363 185.774 39.3803 185.774 38.219Z" fill="white"/>
<path d="M221.131 51.82C223.051 51.82 224.883 52.088 226.625 52.624C228.367 53.1154 229.997 53.8523 231.516 54.835L236.675 48.336H241.298L234.397 57.046C236.094 58.654 237.434 60.5524 238.417 62.741C239.444 64.9297 239.958 67.3417 239.958 69.977C239.958 72.7017 239.444 75.203 238.417 77.481C237.434 79.759 236.072 81.7243 234.33 83.377C232.632 85.0297 230.645 86.325 228.367 87.263C226.089 88.201 223.677 88.67 221.131 88.67C219.344 88.67 217.624 88.4467 215.972 88C214.364 87.5533 212.845 86.9057 211.416 86.057L206.659 92.087H202.103L208.535 83.913C206.703 82.2157 205.252 80.2057 204.18 77.883C203.108 75.5157 202.572 72.8803 202.572 69.977C202.572 67.3417 203.063 64.9074 204.046 62.674C205.028 60.4407 206.368 58.52 208.066 56.912C209.763 55.304 211.728 54.0534 213.962 53.16C216.24 52.2667 218.629 51.82 221.131 51.82ZM221.131 55.036C219.478 55.036 217.959 55.3933 216.575 56.108C215.235 56.8227 214.073 57.85 213.091 59.19C212.153 60.4853 211.416 62.071 210.88 63.947C210.388 65.7783 210.143 67.8107 210.143 70.044C210.143 73.796 210.79 76.9227 212.086 79.424L228.635 58.453C227.697 57.381 226.58 56.5547 225.285 55.974C224.034 55.3487 222.649 55.036 221.131 55.036ZM232.387 70.044C232.387 66.9173 231.828 64.1257 230.712 61.669L214.23 82.506C216.061 84.3374 218.361 85.253 221.131 85.253C222.828 85.253 224.369 84.8957 225.754 84.181C227.138 83.4663 228.322 82.439 229.305 81.099C230.287 79.759 231.047 78.151 231.583 76.275C232.119 74.399 232.387 72.322 232.387 70.044Z" fill="white"/>
<path d="M257.938 77.347C257.938 79.1783 257.983 80.63 258.072 81.702C258.162 82.774 258.385 83.6003 258.742 84.181C259.144 84.717 259.703 85.0743 260.417 85.253C261.132 85.4317 262.137 85.5657 263.432 85.655V88H245.61V85.655C246.906 85.6103 247.933 85.4987 248.692 85.32C249.452 85.0967 250.032 84.717 250.434 84.181C250.836 83.645 251.082 82.8857 251.171 81.903C251.305 80.8757 251.372 79.5134 251.372 77.816V69.977C251.372 66.9397 251.328 64.5723 251.238 62.875C251.194 61.1777 250.97 59.927 250.568 59.123C250.211 58.319 249.63 57.85 248.826 57.716C248.022 57.5373 246.906 57.448 245.476 57.448V55.103L257.201 52.557L258.139 60.865H258.407C258.988 59.525 259.703 58.2967 260.551 57.18C261.445 56.0634 262.405 55.1253 263.432 54.366C264.46 53.562 265.532 52.9367 266.648 52.49C267.765 52.0433 268.904 51.82 270.065 51.82C271.495 51.82 272.611 52.1773 273.415 52.892C274.264 53.562 274.688 54.4777 274.688 55.639C274.688 56.711 274.353 57.5597 273.683 58.185C273.013 58.7657 272.053 59.056 270.802 59.056C270.088 59.056 269.485 58.9667 268.993 58.788C268.502 58.6093 268.055 58.4307 267.653 58.252C267.296 58.0287 266.939 57.8277 266.581 57.649C266.269 57.4703 265.911 57.381 265.509 57.381C264.303 57.381 263.097 58.1627 261.891 59.726C260.685 61.2447 259.747 63.1877 259.077 65.555C258.72 66.8503 258.43 68.3243 258.206 69.977C258.028 71.585 257.938 73.2823 257.938 75.069V77.347Z" fill="white"/>
<path d="M289.466 77.481C289.466 79.3124 289.511 80.764 289.6 81.836C289.689 82.8633 289.913 83.6673 290.27 84.248C290.672 84.784 291.23 85.1413 291.945 85.32C292.704 85.4987 293.732 85.6327 295.027 85.722V88H277.473V85.722C278.724 85.6327 279.706 85.4987 280.421 85.32C281.18 85.1413 281.761 84.784 282.163 84.248C282.565 83.712 282.811 82.9527 282.9 81.97C283.034 80.9873 283.101 79.6474 283.101 77.95V69.039C283.101 63.7237 282.967 60.4853 282.699 59.324C282.565 58.7433 282.386 58.2744 282.163 57.917C281.984 57.515 281.694 57.2247 281.292 57.046C280.89 56.8227 280.376 56.6887 279.751 56.644C279.126 56.5547 278.322 56.51 277.339 56.51V54.366L288.059 51.82L288.863 58.453H289.131C290.828 56.3537 292.816 54.7233 295.094 53.562C297.372 52.4007 299.851 51.82 302.531 51.82C304.586 51.82 306.462 52.155 308.159 52.825C309.856 53.495 311.152 54.4107 312.045 55.572C312.804 56.5993 313.34 57.9393 313.653 59.592C313.966 61.2 314.122 63.4333 314.122 66.292V77.481C314.122 79.3124 314.167 80.764 314.256 81.836C314.39 82.8633 314.636 83.6673 314.993 84.248C315.35 84.784 315.886 85.1413 316.601 85.32C317.36 85.4987 318.343 85.6327 319.549 85.722V88H302.196V85.722C303.447 85.6773 304.429 85.5657 305.144 85.387C305.903 85.1637 306.462 84.784 306.819 84.248C307.221 83.712 307.467 82.9527 307.556 81.97C307.69 80.9427 307.757 79.6027 307.757 77.95V69.106C307.757 66.56 307.623 64.416 307.355 62.674C307.087 60.932 306.64 59.525 306.015 58.453C305.434 57.381 304.653 56.6217 303.67 56.175C302.687 55.6837 301.504 55.438 300.119 55.438C298.109 55.438 296.255 55.974 294.558 57.046C292.905 58.0733 291.61 59.5027 290.672 61.334C290.449 61.7807 290.248 62.205 290.069 62.607C289.935 63.009 289.823 63.478 289.734 64.014C289.645 64.55 289.578 65.1753 289.533 65.89C289.488 66.56 289.466 67.431 289.466 68.503V77.481Z" fill="white"/>
<path d="M356.161 81.769C352.365 86.3697 347.652 88.67 342.024 88.67C339.389 88.67 336.999 88.2457 334.855 87.397C332.711 86.5037 330.858 85.2753 329.294 83.712C327.776 82.104 326.592 80.2057 325.743 78.017C324.895 75.7837 324.47 73.327 324.47 70.647C324.47 67.9224 324.917 65.3987 325.81 63.076C326.704 60.7534 327.954 58.7657 329.562 57.113C331.215 55.4603 333.158 54.165 335.391 53.227C337.669 52.289 340.148 51.82 342.828 51.82C347.161 51.82 350.511 53.0037 352.878 55.371C355.246 57.6937 356.429 61.0437 356.429 65.421C356.429 66.0463 356.295 66.426 356.027 66.56C355.804 66.694 355.246 66.761 354.352 66.761H332.309C332.22 67.1183 332.153 67.565 332.108 68.101C332.064 68.5923 332.041 69.1507 332.041 69.776C332.041 72.0987 332.309 74.2203 332.845 76.141C333.426 78.017 334.23 79.625 335.257 80.965C336.329 82.305 337.58 83.3547 339.009 84.114C340.483 84.8287 342.114 85.186 343.9 85.186C345.776 85.186 347.518 84.784 349.126 83.98C350.734 83.1314 352.387 81.769 354.084 79.893L356.161 81.769ZM345.106 63.679C346 63.679 346.714 63.6567 347.25 63.612C347.786 63.5674 348.188 63.478 348.456 63.344C348.724 63.21 348.903 63.0313 348.992 62.808C349.082 62.54 349.126 62.205 349.126 61.803C349.126 59.7483 348.456 58.118 347.116 56.912C345.821 55.6613 344.034 55.036 341.756 55.036C336.932 55.036 333.94 57.917 332.778 63.679H345.106Z" fill="white"/>
<path d="M362.275 56.711V54.232C364.642 52.8474 366.496 51.4627 367.836 50.078C369.176 48.6933 370.203 47.0407 370.918 45.12H372.861V53.562H381.839V56.711H372.861V77.079C372.861 78.6424 372.928 79.96 373.062 81.032C373.24 82.104 373.508 82.975 373.866 83.645C374.223 84.2704 374.692 84.717 375.273 84.985C375.853 85.253 376.59 85.387 377.484 85.387C378.6 85.387 379.538 85.1637 380.298 84.717C381.102 84.2257 381.883 83.4217 382.643 82.305L384.318 83.578C383.692 85.2307 382.598 86.5037 381.035 87.397C379.516 88.2457 377.618 88.67 375.34 88.67C372.392 88.67 370.136 87.9777 368.573 86.593C367.054 85.1637 366.295 83.1314 366.295 80.496V56.711H362.275Z" fill="white"/>
<path d="M7.5459 88L0.545898 85.454C2.2879 85.4094 3.67257 85.2754 4.6999 85.052C5.7719 84.8287 6.5759 84.449 7.1119 83.913C7.69256 83.377 8.07223 82.6177 8.2509 81.635C8.47423 80.6524 8.5859 79.3794 8.5859 77.816V46.594C8.5859 45.0307 8.49657 43.78 8.3179 42.842C8.1839 41.8594 7.87123 41.1 7.3799 40.564C6.93323 39.9834 6.26323 39.6037 5.3699 39.425C4.47657 39.2017 3.31523 39.0454 1.8859 38.956V36.41H21.9189C27.9489 36.41 32.6389 37.482 35.9889 39.626C39.3389 41.77 41.0139 44.785 41.0139 48.671C41.0139 51.619 40.0759 54.031 38.1999 55.907C36.3686 57.783 33.4429 59.324 29.4229 60.53V60.798C30.8076 60.932 32.0136 61.0884 33.0409 61.267C34.0682 61.4457 34.9839 61.669 35.7879 61.937C36.5919 62.1604 37.3289 62.4507 37.9989 62.808C38.7136 63.1654 39.4059 63.5674 40.0759 64.014C44.0512 66.828 46.0389 70.3567 46.0389 74.6C46.0389 76.9674 45.3689 79.1784 44.0289 81.233C42.7336 83.243 40.9022 84.8287 38.5349 85.99C37.7756 86.392 36.9939 86.727 36.1899 86.995C35.3859 87.2184 34.4479 87.4194 33.3759 87.598C32.3039 87.732 31.0532 87.8437 29.6239 87.933C28.2392 87.9777 26.5866 88 24.6659 88H7.5459ZM24.8669 85.119C32.9516 85.119 36.9939 81.6574 36.9939 74.734C36.9939 69.6867 34.9169 66.158 30.7629 64.148C30.0482 63.8354 29.3559 63.5674 28.6859 63.344C28.0159 63.1207 27.2342 62.9644 26.3409 62.875C25.4476 62.741 24.3756 62.6517 23.1249 62.607C21.9189 62.5624 20.4226 62.54 18.6359 62.54H15.6209V77.481C15.6209 80.2057 16.3356 82.171 17.7649 83.377C19.1942 84.5384 21.5616 85.119 24.8669 85.119ZM19.3729 59.19C20.7576 59.19 21.9189 59.1677 22.8569 59.123C23.7949 59.0784 24.5989 59.0114 25.2689 58.922C25.9389 58.788 26.5196 58.6317 27.0109 58.453C27.5469 58.2297 28.0829 57.9394 28.6189 57.582C30.0482 56.6887 31.0532 55.6167 31.6339 54.366C32.2592 53.1154 32.5719 51.485 32.5719 49.475C32.5719 45.9464 31.7009 43.4227 29.9589 41.904C28.2616 40.3407 25.5816 39.559 21.9189 39.559H16.7599C16.0006 39.559 15.6209 39.9387 15.6209 40.698V59.19H19.3729Z" fill="white"/>
<path d="M41 23.5V47.5L21 36.75L2 37L41 23.5Z" fill="white"/>
<path d="M37 21L2 37L37 12V21Z" fill="white"/>
<path d="M28 16L2 37L28 6V16Z" fill="white"/>
<path d="M21 10L2 37H9L9.5 88H2C0.895431 88 0 87.1046 0 86V38.584C0 37.5458 0.269407 36.5253 0.781884 35.6224L21 0V10Z" fill="white"/>
</svg>
